<svg xmlns="http://www.w3.org/2000/svg" viewBox="0 0 128 128" role="img" aria-label="Folio origami crane">
  <defs>
    <linearGradient id="g" x1="15" x2="108" y1="19" y2="101" gradientUnits="userSpaceOnUse">
      <stop stop-color="#071A45"/>
      <stop offset="1" stop-color="#567BFF"/>
    </linearGradient>
  </defs>
  <rect width="128" height="128" rx="28" fill="#F5F7FF"/>
  <path d="M41 76 15 57l37-6 24 16z" fill="#A9BBFF"/>
  <path d="M52 51 72 21l17 54z" fill="#7395FF"/>
  <path d="M52 51 89 75 41 76z" fill="url(#g)"/>
  <path d="M72 21 114 46 89 75z" fill="#567BFF"/>
  <path d="M89 75 114 46l5 36z" fill="#071A45"/>
  <path d="M41 76 71 101l18-26z" fill="#04102C"/>
  <path d="M15 57 36 34l16 17z" fill="#D6E0FF"/>
  <path d="M84 83h22a7 7 0 0 1 7 7v15a7 7 0 0 1-7 7H84a7 7 0 0 1-7-7V90a7 7 0 0 1 7-7z" fill="#fff"/>
  <path d="M86 94h18M86 102h13" stroke="#567BFF" stroke-linecap="round" stroke-width="4"/>
</svg>
